<svg width="70" height="20" viewBox="0 0 70 20" fill="none" xmlns="http://www.w3.org/2000/svg">
<path d="M7.5 11.25L12.5 13.75M12.5 6.25L7.5 8.75M15 17.5C13.6193 17.5 12.5 16.3807 12.5 15C12.5 13.6193 13.6193 12.5 15 12.5C16.3807 12.5 17.5 13.6193 17.5 15C17.5 16.3807 16.3807 17.5 15 17.5ZM5 12.5C3.61929 12.5 2.5 11.3807 2.5 10C2.5 8.61929 3.61929 7.5 5 7.5C6.38071 7.5 7.5 8.61929 7.5 10C7.5 11.3807 6.38071 12.5 5 12.5ZM15 7.5C13.6193 7.5 12.5 6.38071 12.5 5C12.5 3.61929 13.6193 2.5 15 2.5C16.3807 2.5 17.5 3.61929 17.5 5C17.5 6.38071 16.3807 7.5 15 7.5Z" stroke="#002A48" stroke-width="2" stroke-linecap="round" stroke-linejoin="round"/>
<path d="M32.256 14.196C33.306 14.196 34.16 13.93 34.818 13.398C35.476 12.866 35.812 12.152 35.812 11.242C35.812 10.682 35.658 10.192 35.448 9.856C35.266 9.52 34.818 9.17 34.524 8.988C34.384 8.89 34.174 8.792 33.908 8.694C33.642 8.582 33.432 8.498 33.278 8.456L32.606 8.232C31.878 8.008 31.388 7.798 31.122 7.616C30.87 7.42 30.744 7.168 30.744 6.86C30.744 6.286 31.234 5.88 32.032 5.88C32.886 5.88 33.516 6.3 33.908 7.14L35.532 6.202C34.86 4.816 33.614 4.004 32.032 4.004C31.15 4.004 30.38 4.27 29.75 4.802C29.12 5.32 28.812 6.034 28.812 6.916C28.812 7.812 29.134 8.484 29.736 8.932C30.352 9.366 30.884 9.576 31.766 9.842C32.564 10.066 33.11 10.276 33.418 10.472C33.726 10.654 33.88 10.92 33.88 11.27C33.88 11.872 33.39 12.306 32.312 12.306C31.192 12.306 30.436 11.802 30.058 10.808L28.406 11.774C28.952 13.272 30.31 14.196 32.256 14.196ZM40.8801 6.804C39.9281 6.804 39.2281 7.126 38.7941 7.784V4.2H36.9881V14H38.7941V10.22C38.7941 9.058 39.3961 8.484 40.3341 8.484C41.1741 8.484 41.7201 8.988 41.7201 9.926V14H43.5261V9.702C43.5261 8.792 43.2741 8.092 42.7701 7.574C42.2801 7.056 41.6501 6.804 40.8801 6.804ZM50.3882 7.826C49.8422 7.14 49.0862 6.804 48.1062 6.804C47.1682 6.804 46.3702 7.168 45.6982 7.882C45.0402 8.596 44.7042 9.464 44.7042 10.5C44.7042 11.536 45.0402 12.418 45.6982 13.132C46.3702 13.846 47.1682 14.196 48.1062 14.196C49.0862 14.196 49.8422 13.86 50.3882 13.174V14H52.1942V7H50.3882V7.826ZM47.0562 11.928C46.6922 11.55 46.5102 11.074 46.5102 10.5C46.5102 9.926 46.6922 9.45 47.0562 9.086C47.4202 8.708 47.8822 8.526 48.4422 8.526C49.0022 8.526 49.4642 8.708 49.8282 9.086C50.2062 9.45 50.3882 9.926 50.3882 10.5C50.3882 11.074 50.2062 11.55 49.8282 11.928C49.4642 12.292 49.0022 12.474 48.4422 12.474C47.8822 12.474 47.4202 12.292 47.0562 11.928ZM55.6379 7H53.8319V14H55.6379V10.654C55.6379 9.982 55.8479 9.506 56.2819 9.212C56.7159 8.918 57.2199 8.806 57.7659 8.876V6.86C56.8139 6.86 55.9739 7.308 55.6379 8.204V7ZM65.6261 11.242C65.6681 10.976 65.6961 10.738 65.6961 10.5C65.6961 9.45 65.3601 8.582 64.6881 7.868C64.0301 7.154 63.1761 6.804 62.1541 6.804C61.0761 6.804 60.1801 7.154 59.4941 7.868C58.8081 8.568 58.4581 9.45 58.4581 10.5C58.4581 11.564 58.8081 12.446 59.5081 13.146C60.2081 13.846 61.1321 14.196 62.2941 14.196C63.6381 14.196 64.6601 13.692 65.3461 12.698L63.8901 11.858C63.5401 12.32 63.0081 12.558 62.3221 12.558C61.2441 12.558 60.5861 12.124 60.3481 11.242H65.6261ZM60.3201 9.842C60.5301 8.946 61.1881 8.428 62.1541 8.428C62.9801 8.428 63.6801 8.89 63.8901 9.842H60.3201ZM68.8469 8.82C69.3089 8.358 69.3089 7.602 68.8469 7.14C68.3849 6.678 67.6289 6.678 67.1669 7.14C66.7049 7.602 66.7049 8.358 67.1669 8.82C67.6289 9.282 68.3849 9.282 68.8469 8.82ZM68.8469 13.832C69.3089 13.37 69.3089 12.614 68.8469 12.152C68.3849 11.69 67.6289 11.69 67.1669 12.152C66.7049 12.614 66.7049 13.37 67.1669 13.832C67.6289 14.294 68.3849 14.294 68.8469 13.832Z" fill="#002A48"/>
</svg>
