<svg width="89" height="20" viewBox="0 0 89 20" fill="none" xmlns="http://www.w3.org/2000/svg">
<rect width="89" height="20" rx="10" fill="#00A7E7"/>
<path d="M10.65 6V13H12.03V10.7H13.26C13.93 10.7 14.5 10.47 14.96 10.02C15.42 9.57 15.65 9.01 15.65 8.35C15.65 7.69 15.42 7.13 14.96 6.68C14.5 6.23 13.93 6 13.26 6H10.65ZM12.03 9.41V7.29H13.26C13.85 7.29 14.28 7.74 14.28 8.35C14.28 8.95 13.85 9.41 13.26 9.41H12.03ZM21.3484 11.03C21.3784 10.84 21.3984 10.67 21.3984 10.5C21.3984 9.75 21.1584 9.13 20.6784 8.62C20.2084 8.11 19.5984 7.86 18.8684 7.86C18.0984 7.86 17.4584 8.11 16.9684 8.62C16.4784 9.12 16.2284 9.75 16.2284 10.5C16.2284 11.26 16.4784 11.89 16.9784 12.39C17.4784 12.89 18.1384 13.14 18.9684 13.14C19.9284 13.14 20.6584 12.78 21.1484 12.07L20.1084 11.47C19.8584 11.8 19.4784 11.97 18.9884 11.97C18.2184 11.97 17.7484 11.66 17.5784 11.03H21.3484ZM17.5584 10.03C17.7084 9.39 18.1784 9.02 18.8684 9.02C19.4584 9.02 19.9584 9.35 20.1084 10.03H17.5584ZM25.0125 8H23.8825V6.6L22.5925 6.99V8H21.7225V9.24H22.5925V11.32C22.5925 12.69 23.2425 13.2 25.0125 13V11.83C24.2725 11.87 23.8825 11.86 23.8825 11.32V9.24H25.0125V8ZM31.0402 10.47L33.0502 8H31.5102L29.7902 10.2V6H28.5002V13H29.7902V10.73L31.6102 13H33.1102L31.0402 10.47ZM36.5341 7.86C35.8541 7.86 35.3541 8.09 35.0441 8.56V8H33.7541V13H35.0441V10.3C35.0441 9.47 35.4741 9.06 36.1441 9.06C36.7441 9.06 37.1341 9.42 37.1341 10.09V13H38.4241V9.93C38.4241 9.28 38.2441 8.78 37.8841 8.41C37.5341 8.04 37.0841 7.86 36.5341 7.86ZM43.7855 12.38C44.2955 11.87 44.5555 11.24 44.5555 10.5C44.5555 9.76 44.2955 9.14 43.7855 8.63C43.2755 8.12 42.6455 7.86 41.9055 7.86C41.1655 7.86 40.5355 8.12 40.0255 8.63C39.5155 9.14 39.2655 9.76 39.2655 10.5C39.2655 11.24 39.5155 11.87 40.0255 12.38C40.5355 12.89 41.1655 13.14 41.9055 13.14C42.6455 13.14 43.2755 12.89 43.7855 12.38ZM40.9355 11.49C40.6855 11.23 40.5555 10.9 40.5555 10.5C40.5555 10.1 40.6855 9.77 40.9355 9.51C41.1955 9.25 41.5155 9.12 41.9055 9.12C42.2955 9.12 42.6155 9.25 42.8755 9.51C43.1355 9.77 43.2655 10.1 43.2655 10.5C43.2655 10.9 43.1355 11.23 42.8755 11.49C42.6155 11.75 42.2955 11.88 41.9055 11.88C41.5155 11.88 41.1955 11.75 40.9355 11.49ZM50.0477 11.08L49.1377 8H47.9177L47.0077 11.07L46.1577 8H44.7877L46.3777 13H47.6077L48.5277 9.97L49.4477 13H50.6777L52.2677 8H50.8977L50.0477 11.08ZM54.253 13V5.7H52.963V13H54.253ZM60.2938 11.03C60.3238 10.84 60.3438 10.67 60.3438 10.5C60.3438 9.75 60.1038 9.13 59.6238 8.62C59.1538 8.11 58.5438 7.86 57.8138 7.86C57.0438 7.86 56.4038 8.11 55.9138 8.62C55.4238 9.12 55.1737 9.75 55.1737 10.5C55.1737 11.26 55.4238 11.89 55.9238 12.39C56.4238 12.89 57.0838 13.14 57.9138 13.14C58.8738 13.14 59.6038 12.78 60.0938 12.07L59.0538 11.47C58.8038 11.8 58.4238 11.97 57.9338 11.97C57.1638 11.97 56.6938 11.66 56.5238 11.03H60.2938ZM56.5038 10.03C56.6538 9.39 57.1238 9.02 57.8138 9.02C58.4038 9.02 58.9038 9.35 59.0538 10.03H56.5038ZM65.0343 8.59C64.6543 8.1 64.1143 7.86 63.4143 7.86C62.7443 7.86 62.1643 8.12 61.6843 8.63C61.2143 9.14 60.9743 9.76 60.9743 10.5C60.9743 11.24 61.2143 11.87 61.6843 12.38C62.1643 12.89 62.7443 13.14 63.4143 13.14C64.1143 13.14 64.6543 12.9 65.0343 12.41V13H66.3243V6H65.0343V8.59ZM62.6543 11.52C62.3943 11.25 62.2643 10.91 62.2643 10.5C62.2643 10.09 62.3943 9.75 62.6543 9.49C62.9243 9.22 63.2543 9.09 63.6543 9.09C64.0543 9.09 64.3843 9.22 64.6443 9.49C64.9043 9.75 65.0343 10.09 65.0343 10.5C65.0343 10.91 64.9043 11.25 64.6443 11.52C64.3843 11.78 64.0543 11.91 63.6543 11.91C63.2543 11.91 62.9243 11.78 62.6543 11.52ZM71.3341 8.62C70.9541 8.11 70.4241 7.86 69.7341 7.86C69.0341 7.86 68.4441 8.11 67.9641 8.61C67.4841 9.11 67.2441 9.71 67.2441 10.42C67.2441 11.13 67.4841 11.74 67.9541 12.24C68.4341 12.73 69.0241 12.98 69.7341 12.98C70.4241 12.98 70.9541 12.73 71.3341 12.22V12.76C71.3341 13.55 70.8341 13.99 70.0241 13.99C69.4041 13.99 68.9641 13.76 68.7141 13.29L67.6141 13.92C68.0541 14.72 68.9041 15.14 69.9841 15.14C70.7041 15.14 71.3141 14.94 71.8241 14.53C72.3341 14.12 72.5941 13.53 72.5941 12.76V8H71.3341V8.62ZM71.3341 10.42C71.3341 11.22 70.7441 11.79 69.9341 11.79C69.1241 11.79 68.5341 11.22 68.5341 10.42C68.5341 10.03 68.6641 9.7 68.9241 9.45C69.1941 9.19 69.5241 9.06 69.9341 9.06C70.3441 9.06 70.6741 9.19 70.9341 9.45C71.2041 9.7 71.3341 10.03 71.3341 10.42ZM78.6238 11.03C78.6538 10.84 78.6738 10.67 78.6738 10.5C78.6738 9.75 78.4338 9.13 77.9538 8.62C77.4838 8.11 76.8738 7.86 76.1438 7.86C75.3738 7.86 74.7338 8.11 74.2438 8.62C73.7538 9.12 73.5038 9.75 73.5038 10.5C73.5038 11.26 73.7538 11.89 74.2538 12.39C74.7538 12.89 75.4138 13.14 76.2438 13.14C77.2038 13.14 77.9338 12.78 78.4238 12.07L77.3838 11.47C77.1338 11.8 76.7538 11.97 76.2638 11.97C75.4938 11.97 75.0238 11.66 74.8538 11.03H78.6238ZM74.8338 10.03C74.9838 9.39 75.4538 9.02 76.1438 9.02C76.7338 9.02 77.2338 9.35 77.3838 10.03H74.8338Z" fill="#FDFDFD"/>
</svg>
